<svg viewBox="0 0 1509.1835 158.55103">
    <path d="M 29.551022 127.53061 L 17.959183 155.93878 L 0 155.93878 L 50.122448 40.34694 L 64.81633 40.34694 L 114.44898 155.93878 L 96.16327 155.93878 L 84.408165 127.53061 L 29.551022 127.53061 Z M 56.97959 59.12245 L 35.265305 113.32653 L 78.53062 113.32653 L 56.97959 59.12245 Z M 128.7959 155.93878 L 128.7959 40.34694 L 168.63263 40.34694 Q 183.65305 40.34694 194.26529 47.367348 Q 204.87753 54.387756 204.87753 69.57143 Q 204.87753 78.87755 199.40814 85.57143 Q 193.93875 92.265305 184.63263 94.71429 L 184.63263 95.04082 Q 196.06122 96.34694 203.16325 103.85714 Q 210.26529 111.36735 210.26529 123.122444 Q 210.26529 139.12244 198.10202 147.53061 Q 185.93875 155.93878 166.83672 155.93878 L 128.7959 155.93878 Z M 144.95917 53.897957 L 144.95917 89.16327 L 166.02039 89.16327 Q 175.97958 89.16327 182.34692 84.67347 Q 188.71426 80.18367 188.71426 71.20408 Q 188.71426 53.897957 163.40814 53.897957 L 144.95917 53.897957 Z M 144.95917 102.87755 L 144.95917 142.22449 L 165.20407 142.22449 Q 172.87753 142.22449 178.91835 140.59183 Q 184.95917 138.95918 189.44897 134.30612 Q 193.93875 129.65306 193.93875 122.30612 Q 193.93875 102.87755 166.67346 102.87755 L 144.95917 102.87755 Z M 311.44897 128.22449 L 324.34692 137.04082 Q 308.99997 157.93878 280.2653 157.93878 Q 253.65305 157.93878 236.5102 140.79593 Q 219.36734 123.65306 219.36734 97.04082 Q 219.36734 70.265305 236.83673 53.367348 Q 254.30612 36.46939 280.91837 36.46939 Q 293.3265 36.46939 304.7551 41.204086 Q 316.18365 45.938774 322.38773 54.428574 L 309.65305 64.224495 Q 305.40814 58.183678 297.5714 54.428574 Q 289.73468 50.67347 280.91837 50.67347 Q 261.3265 50.67347 249.16325 64.061226 Q 236.99998 77.44898 236.99998 97.04082 Q 236.99998 116.95918 248.91837 130.2653 Q 260.83673 143.57143 280.42856 143.57143 Q 300.83673 143.57143 311.44897 128.22449 Z M 387.67343 107.02041 L 387.67343 104.897964 Q 387.67343 96.57143 382.53058 92.2449 Q 377.38773 87.918365 368.57138 87.918365 Q 355.51016 87.918365 346.53058 96.897964 L 338.3673 87.10204 Q 350.44894 75.51021 370.04077 75.51021 Q 386.04077 75.51021 394.20404 83.918365 Q 402.3673 92.32653 402.3673 105.87755 L 402.3673 139.67346 Q 402.3673 149.79593 403.51016 155.02042 L 389.6326 155.02042 Q 388.32648 149.46939 388.32648 143.91837 L 387.8367 143.91837 Q 379.18362 156.97958 361.8775 156.97958 Q 356.97955 156.97958 352.24484 155.67346 Q 347.51016 154.36734 343.26526 151.7551 Q 339.02036 149.14285 336.4081 144.32654 Q 333.79587 139.51021 333.79587 133.14285 Q 333.79587 126.448975 336.97955 121.46939 Q 340.16324 116.48979 345.0612 113.79592 Q 349.95914 111.10204 357.551 109.551025 Q 365.14282 108 371.91833 107.51021 Q 378.69385 107.02041 387.67343 107.02041 Z M 387.67343 118.12245 L 383.91833 118.12245 Q 349.46936 118.12245 349.46936 132.81633 Q 349.46936 139.18367 354.04077 142.04082 Q 358.6122 144.89795 365.3061 144.89795 Q 375.75507 144.89795 381.71423 138.61224 Q 387.67343 132.32654 387.67343 122.20409 L 387.67343 118.12245 Z M 432.77545 142.85715 L 432.44894 142.85715 L 432.44894 155.10205 L 417.5918 155.10205 L 417.5918 31.673477 L 432.93872 31.673477 L 432.93872 89.30613 L 433.42853 89.30613 Q 437.67343 83.26531 444.8571 79.42857 Q 452.04077 75.59184 461.02036 75.59184 Q 477.99997 75.59184 488.8571 87.26531 Q 499.71423 98.938774 499.71423 116.244896 Q 499.71423 133.7143 488.93872 145.46939 Q 478.1632 157.22449 460.69382 157.22449 Q 452.3673 157.22449 444.77545 153.46939 Q 437.18362 149.7143 432.77545 142.85715 Z M 483.8775 116.244896 Q 483.8775 104.65307 477.02036 96.4898 Q 470.1632 88.32654 458.08157 88.32654 Q 446.653 88.32654 439.30606 96.65307 Q 431.95914 104.97959 431.95914 116.408165 Q 431.95914 127.83673 439.30606 136.08163 Q 446.653 144.32654 458.08157 144.32654 Q 470.1632 144.32654 477.02036 136.08163 Q 483.8775 127.83673 483.8775 116.244896 Z M 579.6939 88.2449 L 568.59186 97.22449 Q 566.1429 93.30612 561.16327 90.85715 Q 556.18365 88.408165 550.7959 88.408165 Q 539.2041 88.408165 532.3469 96.57143 Q 525.4898 104.734695 525.4898 116.32653 Q 525.4898 127.918365 532.4286 136.08163 Q 539.3674 144.2449 550.95917 144.2449 Q 562.87756 144.2449 569.5714 135.7551 L 579.8571 145.06122 Q 569.40814 157.14285 550.95917 157.14285 Q 532.83673 157.14285 521.08167 145.87756 Q 509.3265 134.61224 509.3265 116.32653 Q 509.3265 98.20409 521 86.85715 Q 532.67346 75.51021 550.6326 75.51021 Q 559.12244 75.51021 567.12244 78.85715 Q 575.12244 82.20409 579.6939 88.2449 Z M 682.898 40.34694 L 682.898 155.93878 L 667.0613 155.93878 L 667.0613 59.612244 L 645.1837 77.89796 L 635.87756 66.95918 L 668.6939 40.34694 L 682.898 40.34694 Z M 769.2041 140.79593 L 769.2041 155 L 693.7755 155 L 693.7755 139.81633 L 739.81635 94.10204 Q 752.551 81.04082 752.551 69.61224 Q 752.551 60.79592 746.6735 55.244904 Q 740.79596 49.69388 731.9796 49.69388 Q 723.32654 49.69388 717.53064 55.244904 Q 711.73474 60.79592 710.2653 69.77551 L 694.7551 67.16327 Q 696.87756 53.775513 707.16327 45.12245 Q 717.449 36.46939 732.1429 36.46939 Q 747.4898 36.46939 758.10205 45.12245 Q 768.7143 53.775513 768.7143 69.28571 Q 768.7143 79.408165 763.9796 87.32653 Q 759.24493 95.2449 750.10205 104.22449 L 712.551 140.79593 L 769.2041 140.79593 Z M 804.8572 101.12245 L 804.8572 88.061226 L 809.9184 88.061226 Q 821.1837 88.061226 828.44904 83.57143 Q 835.7143 79.081635 835.7143 68.79592 Q 835.7143 60.30612 829.7551 55 Q 823.79596 49.69388 815.30615 49.69388 Q 800.6123 49.69388 795.0613 63.897964 L 780.6939 58.83674 Q 784.9388 48.387756 794.32654 42.428574 Q 803.7143 36.46939 815.9592 36.46939 Q 831.1429 36.46939 841.347 44.79592 Q 851.551 53.12245 851.551 67.81633 Q 851.551 77.44898 845.8368 84.63265 Q 840.1225 91.81633 831.1429 94.10204 L 831.1429 94.42857 Q 841.59186 96.551025 848.1225 104.14285 Q 854.6531 111.734695 854.6531 122.67347 Q 854.6531 139.16327 843.22455 148.55103 Q 831.79596 157.93878 815.9592 157.93878 Q 801.9184 157.93878 791.6327 151.57143 Q 781.347 145.20407 776.6123 132.46939 L 791.30615 127.57143 Q 793.9184 135.2449 800.3674 139.89795 Q 806.81635 144.55103 815.6327 144.55103 Q 825.10205 144.55103 831.9592 138.7551 Q 838.81635 132.95918 838.81635 122.51021 Q 838.81635 111.408165 830.24493 106.265305 Q 821.6735 101.12245 809.7551 101.12245 L 804.8572 101.12245 Z M 927.2654 126.85715 L 915.6735 155.2653 L 897.71436 155.2653 L 947.8368 39.67347 L 962.53064 39.67347 L 1012.1633 155.2653 L 993.8776 155.2653 L 982.1225 126.85715 L 927.2654 126.85715 Z M 954.6939 58.448982 L 932.9796 112.65306 L 976.24493 112.65306 L 954.6939 58.448982 Z M 971.8368 16 Q 971.8368 22.857147 967.02045 27.510208 Q 962.20416 32.16327 955.347 32.16327 Q 948.48987 32.16327 943.7551 27.591835 Q 939.02045 23.020416 939.02045 16.163269 Q 939.02045 9.306122 943.7551 4.653061 Q 948.48987 0 955.347 0 Q 962.20416 0 967.02045 4.5714264 Q 971.8368 9.142853 971.8368 16 Z M 965.1429 16 Q 965.1429 11.9183655 962.28577 9.224487 Q 959.42865 6.530609 955.347 6.530609 Q 951.2654 6.530609 948.48987 9.306122 Q 945.71436 12.0816345 945.71436 16.163269 Q 945.71436 20.081635 948.48987 22.775513 Q 951.2654 25.46939 955.347 25.46939 Q 959.42865 25.46939 962.28577 22.775513 Q 965.1429 20.081635 965.1429 16 Z M 1043.6122 127.20407 L 1032.0204 155.61224 L 1014.0613 155.61224 L 1064.1836 40.02041 L 1078.8776 40.02041 L 1128.5101 155.61224 L 1110.2245 155.61224 L 1098.4694 127.20407 L 1043.6122 127.20407 Z M 1071.0408 58.79592 L 1049.3265 113 L 1092.5918 113 L 1071.0408 58.79592 Z M 1045.5714 17.65306 Q 1045.5714 13.571426 1048.5101 10.63266 Q 1051.449 7.693878 1055.6938 7.693878 Q 1059.9387 7.693878 1062.8776 10.551025 Q 1065.8163 13.408157 1065.8163 17.65306 Q 1065.8163 21.734695 1062.8776 24.591843 Q 1059.9387 27.448975 1055.6938 27.448975 Q 1051.449 27.448975 1048.5101 24.510208 Q 1045.5714 21.571426 1045.5714 17.65306 Z M 1077.2449 17.65306 Q 1077.2449 13.571426 1080.1836 10.63266 Q 1083.1224 7.693878 1087.3673 7.693878 Q 1091.6122 7.693878 1094.551 10.551025 Q 1097.4897 13.408157 1097.4897 17.65306 Q 1097.4897 21.734695 1094.551 24.591843 Q 1091.6122 27.448975 1087.3673 27.448975 Q 1083.1224 27.448975 1080.1836 24.510208 Q 1077.2449 21.571426 1077.2449 17.65306 Z M 1260.5509 97.65306 Q 1260.5509 124.265305 1243.1632 141.40816 Q 1225.7755 158.55103 1199.1632 158.55103 Q 1172.7142 158.55103 1155.4081 141.40816 Q 1138.1019 124.265305 1138.1019 97.65306 Q 1138.1019 70.87755 1155.3264 53.97959 Q 1172.5509 37.081635 1199.1632 37.081635 Q 1225.7755 37.081635 1243.1632 53.97959 Q 1260.5509 70.87755 1260.5509 97.65306 Z M 1243.0815 97.65306 Q 1243.0815 78.061226 1231 64.67347 Q 1218.9183 51.285713 1199.1632 51.285713 Q 1179.7346 51.285713 1167.653 64.67347 Q 1155.5714 78.061226 1155.5714 97.65306 Q 1155.5714 117.40816 1167.653 130.7143 Q 1179.7346 144.0204 1199.1632 144.0204 Q 1218.9183 144.0204 1231 130.7143 Q 1243.0815 117.40816 1243.0815 97.65306 Z M 1173.204 17.65306 Q 1173.204 13.571426 1176.1428 10.63266 Q 1179.0815 7.693878 1183.3264 7.693878 Q 1187.5714 7.693878 1190.5101 10.551025 Q 1193.449 13.408157 1193.449 17.65306 Q 1193.449 21.734695 1190.5101 24.591843 Q 1187.5714 27.448975 1183.3264 27.448975 Q 1179.0815 27.448975 1176.1428 24.510208 Q 1173.204 21.571426 1173.204 17.65306 Z M 1204.8774 17.65306 Q 1204.8774 13.571426 1207.8163 10.63266 Q 1210.755 7.693878 1215 7.693878 Q 1219.2449 7.693878 1222.1836 10.551025 Q 1225.1224 13.408157 1225.1224 17.65306 Q 1225.1224 21.734695 1222.1836 24.591843 Q 1219.2449 27.448975 1215 27.448975 Q 1210.755 27.448975 1207.8163 24.510208 Q 1204.8774 21.571426 1204.8774 17.65306 Z M 1322.898 107.918365 L 1322.898 105.79591 Q 1322.898 97.46939 1317.7551 93.14285 Q 1312.6123 88.81632 1303.796 88.81632 Q 1290.7347 88.81632 1281.7551 97.79591 L 1273.5919 88 Q 1285.6735 76.408165 1305.2654 76.408165 Q 1321.2654 76.408165 1329.4286 84.81632 Q 1337.5919 93.22449 1337.5919 106.77551 L 1337.5919 140.57143 Q 1337.5919 150.69388 1338.7347 155.91837 L 1324.8572 155.91837 Q 1323.551 150.36734 1323.551 144.81631 L 1323.0613 144.81631 Q 1314.4082 157.87755 1297.102 157.87755 Q 1292.2041 157.87755 1287.4695 156.57143 Q 1282.7347 155.2653 1278.4899 152.65306 Q 1274.245 150.04082 1271.6327 145.22449 Q 1269.0205 140.40817 1269.0205 134.04082 Q 1269.0205 127.34694 1272.2041 122.36734 Q 1275.3878 117.38776 1280.2858 114.69388 Q 1285.1837 112 1292.7755 110.448975 Q 1300.3674 108.89796 1307.143 108.40816 Q 1313.9185 107.918365 1322.898 107.918365 Z M 1322.898 119.02041 L 1319.143 119.02041 Q 1284.694 119.02041 1284.694 133.7143 Q 1284.694 140.08163 1289.2654 142.93878 Q 1293.8368 145.79591 1300.5306 145.79591 Q 1310.9796 145.79591 1316.9388 139.5102 Q 1322.898 133.22449 1322.898 123.102036 L 1322.898 119.02041 Z M 1321.7551 49.30612 Q 1321.7551 56.16327 1316.9388 60.81633 Q 1312.1224 65.46939 1305.2654 65.46939 Q 1298.4082 65.46939 1293.6735 60.897957 Q 1288.9388 56.32653 1288.9388 49.46939 Q 1288.9388 42.612244 1293.6735 37.959183 Q 1298.4082 33.30612 1305.2654 33.30612 Q 1312.1224 33.30612 1316.9388 37.87755 Q 1321.7551 42.448982 1321.7551 49.30612 Z M 1314.898 49.30612 Q 1314.898 45.387756 1312.0409 42.775513 Q 1309.1837 40.16327 1305.2654 40.16327 Q 1301.347 40.16327 1298.5715 42.775513 Q 1295.796 45.387756 1295.796 49.30612 Q 1295.796 53.224487 1298.5715 55.918365 Q 1301.347 58.612244 1305.2654 58.612244 Q 1309.1837 58.612244 1312.0409 55.918365 Q 1314.898 53.224487 1314.898 49.30612 Z M 1400.6122 107.265305 L 1400.6122 105.14285 Q 1400.6122 96.81633 1395.4694 92.48979 Q 1390.3265 88.16326 1381.5103 88.16326 Q 1368.449 88.16326 1359.4694 97.14285 L 1351.3062 87.34694 Q 1363.3877 75.755104 1382.9796 75.755104 Q 1398.9796 75.755104 1407.1428 84.16326 Q 1415.3062 92.57143 1415.3062 106.12245 L 1415.3062 139.91837 Q 1415.3062 150.04082 1416.449 155.2653 L 1402.5714 155.2653 Q 1401.2653 149.7143 1401.2653 144.16327 L 1400.7755 144.16327 Q 1392.1224 157.22449 1374.8163 157.22449 Q 1369.9183 157.22449 1365.1837 155.91837 Q 1360.449 154.61224 1356.2041 152 Q 1351.9592 149.38776 1349.3469 144.57143 Q 1346.7347 139.7551 1346.7347 133.38776 Q 1346.7347 126.69388 1349.9183 121.71428 Q 1353.102 116.734695 1358 114.04082 Q 1362.898 111.34694 1370.4897 109.79591 Q 1378.0817 108.244896 1384.8572 107.7551 Q 1391.6327 107.265305 1400.6122 107.265305 Z M 1400.6122 118.36735 L 1396.8572 118.36735 Q 1362.4082 118.36735 1362.4082 133.06122 Q 1362.4082 139.42857 1366.9796 142.2857 Q 1371.551 145.14285 1378.2449 145.14285 Q 1388.6938 145.14285 1394.6531 138.85715 Q 1400.6122 132.57143 1400.6122 122.448975 L 1400.6122 118.36735 Z M 1357.1837 49.959183 Q 1357.1837 45.87755 1360.1224 42.938774 Q 1363.0613 40 1367.3062 40 Q 1371.551 40 1374.4897 42.857147 Q 1377.4286 45.714287 1377.4286 49.959183 Q 1377.4286 54.040817 1374.4897 56.897957 Q 1371.551 59.755104 1367.3062 59.755104 Q 1363.0613 59.755104 1360.1224 56.81633 Q 1357.1837 53.87755 1357.1837 49.959183 Z M 1388.8572 49.959183 Q 1388.8572 45.87755 1391.7959 42.938774 Q 1394.7347 40 1398.9796 40 Q 1403.2245 40 1406.1632 42.857147 Q 1409.102 45.714287 1409.102 49.959183 Q 1409.102 54.040817 1406.1632 56.897957 Q 1403.2245 59.755104 1398.9796 59.755104 Q 1394.7347 59.755104 1391.7959 56.81633 Q 1388.8572 53.87755 1388.8572 49.959183 Z M 1509.1835 116.40816 Q 1509.1835 134.20407 1497.1835 145.79591 Q 1485.1835 157.38776 1467.3876 157.38776 Q 1449.5917 157.38776 1437.6733 145.79591 Q 1425.7549 134.20407 1425.7549 116.40816 Q 1425.7549 98.61224 1437.5917 87.18367 Q 1449.4285 75.755104 1467.3876 75.755104 Q 1485.3468 75.755104 1497.2651 87.18367 Q 1509.1835 98.61224 1509.1835 116.40816 Z M 1493.1835 116.40816 Q 1493.1835 104.81633 1486.2448 96.65306 Q 1479.3059 88.4898 1467.3876 88.4898 Q 1455.4692 88.4898 1448.5304 96.65306 Q 1441.5917 104.81633 1441.5917 116.40816 Q 1441.5917 128 1448.5304 136.2449 Q 1455.4692 144.48979 1467.3876 144.48979 Q 1479.3059 144.48979 1486.2448 136.2449 Q 1493.1835 128 1493.1835 116.40816 Z M 1441.5917 49.959183 Q 1441.5917 45.87755 1444.5304 42.938774 Q 1447.4692 40 1451.7141 40 Q 1455.959 40 1458.8978 42.857147 Q 1461.8365 45.714287 1461.8365 49.959183 Q 1461.8365 54.040817 1458.8978 56.897957 Q 1455.959 59.755104 1451.7141 59.755104 Q 1447.4692 59.755104 1444.5304 56.81633 Q 1441.5917 53.87755 1441.5917 49.959183 Z M 1473.2651 49.959183 Q 1473.2651 45.87755 1476.204 42.938774 Q 1479.1427 40 1483.3876 40 Q 1487.6324 40 1490.5713 42.857147 Q 1493.51 45.714287 1493.51 49.959183 Q 1493.51 54.040817 1490.5713 56.897957 Q 1487.6324 59.755104 1483.3876 59.755104 Q 1479.1427 59.755104 1476.204 56.81633 Q 1473.2651 53.87755 1473.2651 49.959183 Z " fill="tomato"/>
    <rect x="0" y="0" width="1509.1835" height="158.55103" stroke="black" stroke-width="1" fill="none"/>
</svg>
