<svg viewBox="0 0 53.204353 148.81097">
    <path d="M 19.99194 47.1584 Q 18.137848 41.27368 17.412334 36.678757 Q 16.767433 32.809353 16.767433 27.650146 Q 16.767433 25.876663 16.848045 24.103188 Q 17.170496 16.444984 19.99194 10.036278 Q 22.813383 3.627571 28.456268 0.24183655 Q 28.859333 0 29.504234 0 Q 30.06852 0 30.471584 0.4030609 Q 34.985893 4.9173737 37.404274 11.930672 Q 39.822655 18.943977 39.822655 26.1185 Q 39.822655 34.421608 36.275696 42.40226 Q 32.889965 50.38291 26.763403 56.509476 Q 26.279728 56.99315 26.440952 57.79928 L 29.665459 70.6973 Q 29.907295 71.98711 31.27771 71.82588 Q 32.567513 71.66466 33.776703 71.66466 Q 38.45224 71.66466 42.241035 73.518745 Q 46.029827 75.37283 48.367596 78.35551 Q 50.705364 81.33817 51.95486 84.92544 Q 53.204353 88.5127 53.204353 92.3015 Q 53.204353 99.23419 49.334946 104.83676 Q 45.465538 110.43935 40.06449 112.21283 Q 38.935913 112.61589 39.177753 113.905685 Q 41.19307 123.417984 41.27368 129.94762 Q 41.27368 132.44661 40.951233 134.86497 Q 40.306328 140.42726 36.11447 144.61911 Q 31.922615 148.81097 26.118502 148.81097 Q 19.024588 148.81097 14.107216 144.5385 Q 9.189843 140.26604 9.189843 133.33334 Q 9.189843 129.78639 11.688835 127.20679 Q 14.187828 124.62717 17.573559 124.62717 Q 21.039904 124.62717 23.417978 127.08586 Q 25.796051 129.54454 25.796051 132.93028 Q 25.796051 135.83234 23.861347 138.00887 Q 21.926643 140.26604 19.185814 140.50786 Q 18.21846 140.58849 17.896011 141.47522 Q 17.573559 142.36195 18.540913 143.08748 Q 21.442966 145.34462 25.634827 145.34462 Q 30.229748 145.34462 33.575172 142.0395 Q 36.920597 138.73439 37.484886 134.54253 Q 37.88795 131.64047 37.88795 128.73842 Q 37.88795 122.45062 35.953247 114.79242 Q 35.630795 113.42201 34.179768 113.58324 Q 30.955261 113.9863 28.214432 113.9863 Q 16.283756 113.9863 8.141878 106.48932 Q 0 98.99234 0 86.09432 Q 0 82.1443 0.9270458 78.3152 Q 1.8540912 74.4861 3.022975 71.70496 Q 4.1918583 68.92383 6.650544 65.25595 Q 9.10923 61.588074 10.600565 59.653366 Q 12.0919 57.718666 15.316406 53.889565 Q 18.540913 50.060463 19.750101 48.528824 Q 20.233778 47.96454 19.99194 47.1584 Z M 32.567513 83.99839 L 37.80734 107.77913 Q 38.049175 108.82709 39.258366 108.82709 Q 39.580814 108.82709 39.822655 108.746475 Q 43.127773 107.37607 45.304314 103.42604 Q 47.480858 99.47601 47.480858 95.60661 Q 47.480858 89.96373 44.175735 86.09432 Q 40.790005 82.1443 34.018543 82.1443 Q 33.454254 82.1443 33.010883 82.58767 Q 32.567513 83.03104 32.567513 83.59533 Q 32.4869 83.837166 32.567513 83.99839 Z M 21.442966 61.588074 Q 20.153164 63.0391 17.613867 65.739624 Q 15.074568 68.44015 13.825071 69.85087 Q 12.575575 71.2616 10.76179 73.8412 Q 8.948006 76.42081 8.061266 78.59734 Q 7.174526 80.77389 6.489319 83.91778 Q 5.8041115 87.061676 5.8041115 90.60863 Q 5.8041115 95.526 8.827086 100.120926 Q 11.850061 104.71585 17.13019 107.617905 Q 22.41032 110.51996 28.456268 110.51996 Q 30.632813 110.51996 33.29303 110.27812 Q 33.93793 110.19751 34.340992 109.67352 Q 34.744057 109.149536 34.582832 108.50464 L 29.34301 84.40146 Q 29.10117 83.27288 27.811367 83.27288 Q 27.56953 83.27288 27.247078 83.35349 Q 23.538897 84.72391 22.007256 87.2229 Q 20.475616 89.72189 20.475616 93.51069 Q 20.475616 97.94438 25.312374 101.168884 Q 25.876663 101.57196 25.876663 102.37808 Q 25.876663 103.02298 25.352682 103.587265 Q 24.8287 104.15155 24.103186 104.15155 Q 23.700123 104.15155 23.37767 103.990326 Q 18.78275 101.57196 16.5659 97.4204 Q 14.349052 93.268845 14.349052 88.67393 Q 14.349052 84.240234 17.533253 79.52439 Q 20.717453 74.80855 25.4736 73.03507 Q 26.68279 72.55139 26.440952 71.34221 L 24.022572 62.23297 Q 23.861347 61.346237 22.893995 61.185013 Q 21.926643 61.02379 21.442966 61.588074 Z M 34.985893 14.671509 Q 34.340992 12.575577 32.809353 12.575577 Q 32.325676 12.575577 31.922615 12.817413 Q 26.763403 15.880692 23.740429 21.44297 Q 20.717453 27.005241 20.717453 33.212418 Q 20.717453 37.24305 22.41032 43.127777 Q 22.652157 44.01451 23.619509 44.175735 Q 24.425636 44.256348 24.989925 43.61145 Q 25.231762 43.289 27.287384 40.749695 Q 29.34301 38.210403 29.987907 37.363968 Q 30.632813 36.517532 32.16445 34.13946 Q 33.69609 31.76139 34.300686 30.189442 Q 34.90528 28.617493 35.46957 26.279724 Q 36.03386 23.941963 36.03386 21.604195 Q 36.03386 18.21846 34.985893 14.671509 Z " fill="tomato"/>
    <rect x="0" y="0" width="53.204353" height="148.81097" stroke="black" stroke-width="1" fill="none"/>
</svg>
