<svg xmlns="http://www.w3.org/2000/svg" xmlns:xlink="http://www.w3.org/1999/xlink" viewBox="0 0 660 1846">
    <path d="M 248 585 Q 225 512 216 455 Q 208 407 208 343 Q 208 321 209 299 Q 213 204 248 124.5 Q 283 45 353 3 Q 358 0 366 0 Q 373 0 378 5 Q 434 61 464 148 Q 494 235 494 324 Q 494 427 450 526 Q 408 625 332 701 Q 326 707 328 717 L 368 877 Q 371 893 388 891 Q 404 889 419 889 Q 477 889 524 912 Q 571 935 600 972 Q 629 1009 644.5 1053.5 Q 660 1098 660 1145 Q 660 1231 612 1300.5 Q 564 1370 497 1392 Q 483 1397 486 1413 Q 511 1531 512 1612 Q 512 1643 508 1673 Q 500 1742 448 1794 Q 396 1846 324 1846 Q 236 1846 175 1793 Q 114 1740 114 1654 Q 114 1610 145 1578 Q 176 1546 218 1546 Q 261 1546 290.5 1576.5 Q 320 1607 320 1649 Q 320 1685 296 1712 Q 272 1740 238 1743 Q 226 1744 222 1755 Q 218 1766 230 1775 Q 266 1803 318 1803 Q 375 1803 416.5 1762 Q 458 1721 465 1669 Q 470 1633 470 1597 Q 470 1519 446 1424 Q 442 1407 424 1409 Q 384 1414 350 1414 Q 202 1414 101 1321 Q 0 1228 0 1068 Q 0 1019 11.5 971.5 Q 23 924 37.5 889.5 Q 52 855 82.5 809.5 Q 113 764 131.5 740 Q 150 716 190 668.5 Q 230 621 245 602 Q 251 595 248 585 Z M 404 1042 L 469 1337 Q 472 1350 487 1350 Q 491 1350 494 1349 Q 535 1332 562 1283 Q 589 1234 589 1186 Q 589 1116 548 1068 Q 506 1019 422 1019 Q 415 1019 409.5 1024.5 Q 404 1030 404 1037 Q 403 1040 404 1042 Z M 266 764 Q 250 782 218.5 815.5 Q 187 849 171.5 866.5 Q 156 884 133.5 916 Q 111 948 100 975 Q 89 1002 80.5 1041 Q 72 1080 72 1124 Q 72 1185 109.5 1242 Q 147 1299 212.5 1335 Q 278 1371 353 1371 Q 380 1371 413 1368 Q 421 1367 426 1360.5 Q 431 1354 429 1346 L 364 1047 Q 361 1033 345 1033 Q 342 1033 338 1034 Q 292 1051 273 1082 Q 254 1113 254 1160 Q 254 1215 314 1255 Q 321 1260 321 1270 Q 321 1278 314.5 1285 Q 308 1292 299 1292 Q 294 1292 290 1290 Q 233 1260 205.5 1208.5 Q 178 1157 178 1100 Q 178 1045 217.5 986.5 Q 257 928 316 906 Q 331 900 328 885 L 298 772 Q 296 761 284 759 Q 272 757 266 764 Z M 434 182 Q 426 156 407 156 Q 401 156 396 159 Q 332 197 294.5 266 Q 257 335 257 412 Q 257 462 278 535 Q 281 546 293 548 Q 303 549 310 541 Q 313 537 338.5 505.5 Q 364 474 372 463.5 Q 380 453 399 423.5 Q 418 394 425.5 374.5 Q 433 355 440 326 Q 447 297 447 268 Q 447 226 434 182 Z " fill="white"/>
    <rect x="0" y="0" width="660" height="1846" stroke="black" stroke-width="1" fill="none"/>
</svg>
