<svg viewBox="0 0 67 185.6">
    <path d="M 25.300001 59 Q 23 51.7 22.1 46 Q 21.300001 41.199997 21.300001 34.799995 Q 21.300001 32.6 21.4 30.400002 Q 21.800001 20.900002 25.300001 12.949997 Q 28.800001 5 35.8 0.7999954 Q 36.3 0.5 37.100002 0.5 Q 37.8 0.5 38.3 1 Q 43.9 6.5999985 46.9 15.299995 Q 49.9 24 49.9 32.9 Q 49.9 43.199997 45.5 53.1 Q 41.3 63 33.7 70.6 Q 33.100002 71.2 33.3 72.2 L 37.3 88.2 Q 37.600002 89.8 39.3 89.6 Q 40.9 89.4 42.4 89.4 Q 48.2 89.4 52.9 91.7 Q 57.600002 94 60.5 97.7 Q 63.4 101.4 64.950005 105.85 Q 66.5 110.3 66.5 115 Q 66.5 123.6 61.7 130.55 Q 56.9 137.5 50.2 139.7 Q 48.8 140.2 49.100002 141.8 Q 51.600002 153.6 51.7 161.7 Q 51.7 164.8 51.3 167.8 Q 50.5 174.7 45.3 179.9 Q 40.100002 185.1 32.9 185.1 Q 24.1 185.1 18 179.8 Q 11.900001 174.5 11.900001 165.9 Q 11.900001 161.5 15 158.3 Q 18.1 155.1 22.300001 155.1 Q 26.6 155.1 29.550001 158.15 Q 32.5 161.2 32.5 165.4 Q 32.5 169 30.1 171.7 Q 27.7 174.5 24.300001 174.8 Q 23.1 174.9 22.7 176 Q 22.300001 177.1 23.5 178 Q 27.1 180.8 32.300003 180.8 Q 38 180.8 42.15 176.7 Q 46.3 172.6 47 167.4 Q 47.5 163.8 47.5 160.2 Q 47.5 152.4 45.100002 142.9 Q 44.7 141.2 42.9 141.4 Q 38.9 141.9 35.5 141.9 Q 20.7 141.9 10.6 132.6 Q 0.5 123.3 0.5 107.3 Q 0.5 102.4 1.65 97.65 Q 2.8 92.9 4.25 89.45 Q 5.7000003 86 8.75 81.45 Q 11.8 76.899994 13.650001 74.5 Q 15.5 72.1 19.5 67.35 Q 23.5 62.6 25 60.7 Q 25.6 60 25.300001 59 Z M 40.9 104.7 L 47.4 134.2 Q 47.7 135.5 49.2 135.5 Q 49.600002 135.5 49.9 135.4 Q 54 133.7 56.7 128.8 Q 59.4 123.9 59.4 119.1 Q 59.4 112.1 55.3 107.3 Q 51.100002 102.4 42.7 102.4 Q 42 102.4 41.45 102.95 Q 40.9 103.5 40.9 104.2 Q 40.8 104.5 40.9 104.7 Z M 27.1 76.899994 Q 25.5 78.7 22.35 82.05 Q 19.2 85.4 17.65 87.15 Q 16.1 88.9 13.85 92.1 Q 11.6 95.3 10.5 98 Q 9.400001 100.7 8.55 104.6 Q 7.7000003 108.5 7.7000003 112.9 Q 7.7000003 119 11.45 124.7 Q 15.2 130.4 21.75 134 Q 28.300001 137.6 35.8 137.6 Q 38.5 137.6 41.8 137.3 Q 42.600002 137.2 43.100002 136.55 Q 43.600002 135.9 43.4 135.1 L 36.9 105.2 Q 36.600002 103.8 35 103.8 Q 34.7 103.8 34.3 103.9 Q 29.7 105.6 27.800001 108.7 Q 25.9 111.8 25.9 116.5 Q 25.9 122 31.9 126 Q 32.600002 126.5 32.600002 127.5 Q 32.600002 128.3 31.95 129 Q 31.300001 129.7 30.4 129.7 Q 29.9 129.7 29.5 129.5 Q 23.800001 126.5 21.050001 121.35 Q 18.300001 116.2 18.300001 110.5 Q 18.300001 105 22.25 99.15 Q 26.2 93.3 32.1 91.1 Q 33.600002 90.5 33.3 89 L 30.300001 77.7 Q 30.1 76.6 28.9 76.399994 Q 27.7 76.2 27.1 76.899994 Z M 43.9 18.699997 Q 43.100002 16.099998 41.2 16.099998 Q 40.600002 16.099998 40.100002 16.400002 Q 33.7 20.199997 29.95 27.099998 Q 26.2 34 26.2 41.699997 Q 26.2 46.699997 28.300001 54 Q 28.6 55.1 29.800001 55.3 Q 30.800001 55.399998 31.5 54.6 Q 31.800001 54.2 34.350002 51.049995 Q 36.9 47.9 37.7 46.85 Q 38.5 45.799995 40.4 42.85 Q 42.3 39.9 43.05 37.949997 Q 43.8 36 44.5 33.1 Q 45.2 30.199997 45.2 27.299995 Q 45.2 23.099998 43.9 18.699997 Z " stroke="dodgerblue" stroke-width="1" fill="tomato"/>
    <rect x="0" y="0" width="67" height="185.6" stroke="black" stroke-width="1" fill="none"/>
</svg>
