<svg viewBox="0 0 1768.9384 160.93878">
    <path d="M 29.551022 127.53061 L 17.959183 155.93878 L 0 155.93878 L 50.122448 40.34694 L 64.81633 40.34694 L 114.44898 155.93878 L 96.16327 155.93878 L 84.408165 127.53061 L 29.551022 127.53061 Z M 56.97959 59.12245 L 35.265305 113.32653 L 78.53062 113.32653 L 56.97959 59.12245 Z M 128.7959 155.93878 L 128.7959 40.34694 L 168.63263 40.34694 Q 183.65305 40.34694 194.26529 47.367348 Q 204.87753 54.387756 204.87753 69.57143 Q 204.87753 78.87755 199.40814 85.57143 Q 193.93875 92.265305 184.63263 94.71429 L 184.63263 95.04082 Q 196.06122 96.34694 203.16325 103.85714 Q 210.26529 111.36735 210.26529 123.122444 Q 210.26529 139.12244 198.10202 147.53061 Q 185.93875 155.93878 166.83672 155.93878 L 128.7959 155.93878 Z M 144.95917 53.897957 L 144.95917 89.16327 L 166.02039 89.16327 Q 175.97958 89.16327 182.34692 84.67347 Q 188.71426 80.18367 188.71426 71.20408 Q 188.71426 53.897957 163.40814 53.897957 L 144.95917 53.897957 Z M 144.95917 102.87755 L 144.95917 142.22449 L 165.20407 142.22449 Q 172.87753 142.22449 178.91835 140.59183 Q 184.95917 138.95918 189.44897 134.30612 Q 193.93875 129.65306 193.93875 122.30612 Q 193.93875 102.87755 166.67346 102.87755 L 144.95917 102.87755 Z M 311.44897 128.22449 L 324.34692 137.04082 Q 308.99997 157.93878 280.2653 157.93878 Q 253.65305 157.93878 236.5102 140.79593 Q 219.36734 123.65306 219.36734 97.04082 Q 219.36734 70.265305 236.83673 53.367348 Q 254.30612 36.46939 280.91837 36.46939 Q 293.3265 36.46939 304.7551 41.204086 Q 316.18365 45.938774 322.38773 54.428574 L 309.65305 64.224495 Q 305.40814 58.183678 297.5714 54.428574 Q 289.73468 50.67347 280.91837 50.67347 Q 261.3265 50.67347 249.16325 64.061226 Q 236.99998 77.44898 236.99998 97.04082 Q 236.99998 116.95918 248.91837 130.2653 Q 260.83673 143.57143 280.42856 143.57143 Q 300.83673 143.57143 311.44897 128.22449 Z M 387.67343 107.02041 L 387.67343 104.897964 Q 387.67343 96.57143 382.53058 92.2449 Q 377.38773 87.918365 368.57138 87.918365 Q 355.51016 87.918365 346.53058 96.897964 L 338.3673 87.10204 Q 350.44894 75.51021 370.04077 75.51021 Q 386.04077 75.51021 394.20404 83.918365 Q 402.3673 92.32653 402.3673 105.87755 L 402.3673 139.67346 Q 402.3673 149.79593 403.51016 155.02042 L 389.6326 155.02042 Q 388.32648 149.46939 388.32648 143.91837 L 387.8367 143.91837 Q 379.18362 156.97958 361.8775 156.97958 Q 356.97955 156.97958 352.24484 155.67346 Q 347.51016 154.36734 343.26526 151.7551 Q 339.02036 149.14285 336.4081 144.32654 Q 333.79587 139.51021 333.79587 133.14285 Q 333.79587 126.448975 336.97955 121.46939 Q 340.16324 116.48979 345.0612 113.79592 Q 349.95914 111.10204 357.551 109.551025 Q 365.14282 108 371.91833 107.51021 Q 378.69385 107.02041 387.67343 107.02041 Z M 387.67343 118.12245 L 383.91833 118.12245 Q 349.46936 118.12245 349.46936 132.81633 Q 349.46936 139.18367 354.04077 142.04082 Q 358.6122 144.89795 365.3061 144.89795 Q 375.75507 144.89795 381.71423 138.61224 Q 387.67343 132.32654 387.67343 122.20409 L 387.67343 118.12245 Z M 432.77545 142.85715 L 432.44894 142.85715 L 432.44894 155.10205 L 417.5918 155.10205 L 417.5918 31.673477 L 432.93872 31.673477 L 432.93872 89.30613 L 433.42853 89.30613 Q 437.67343 83.26531 444.8571 79.42857 Q 452.04077 75.59184 461.02036 75.59184 Q 477.99997 75.59184 488.8571 87.26531 Q 499.71423 98.938774 499.71423 116.244896 Q 499.71423 133.7143 488.93872 145.46939 Q 478.1632 157.22449 460.69382 157.22449 Q 452.3673 157.22449 444.77545 153.46939 Q 437.18362 149.7143 432.77545 142.85715 Z M 483.8775 116.244896 Q 483.8775 104.65307 477.02036 96.4898 Q 470.1632 88.32654 458.08157 88.32654 Q 446.653 88.32654 439.30606 96.65307 Q 431.95914 104.97959 431.95914 116.408165 Q 431.95914 127.83673 439.30606 136.08163 Q 446.653 144.32654 458.08157 144.32654 Q 470.1632 144.32654 477.02036 136.08163 Q 483.8775 127.83673 483.8775 116.244896 Z M 579.6939 88.2449 L 568.59186 97.22449 Q 566.1429 93.30612 561.16327 90.85715 Q 556.18365 88.408165 550.7959 88.408165 Q 539.2041 88.408165 532.3469 96.57143 Q 525.4898 104.734695 525.4898 116.32653 Q 525.4898 127.918365 532.4286 136.08163 Q 539.3674 144.2449 550.95917 144.2449 Q 562.87756 144.2449 569.5714 135.7551 L 579.8571 145.06122 Q 569.40814 157.14285 550.95917 157.14285 Q 532.83673 157.14285 521.08167 145.87756 Q 509.3265 134.61224 509.3265 116.32653 Q 509.3265 98.20409 521 86.85715 Q 532.67346 75.51021 550.6326 75.51021 Q 559.12244 75.51021 567.12244 78.85715 Q 575.12244 82.20409 579.6939 88.2449 Z M 642.08167 40.34694 L 642.08167 155.93878 L 626.24493 155.93878 L 626.24493 59.612244 L 604.3674 77.89796 L 595.0612 66.95918 L 627.87756 40.34694 L 642.08167 40.34694 Z M 728.3877 140.79593 L 728.3877 155 L 652.9591 155 L 652.9591 139.81633 L 698.99994 94.10204 Q 711.7346 81.04082 711.7346 69.61224 Q 711.7346 60.79592 705.8571 55.244904 Q 699.97955 49.69388 691.1632 49.69388 Q 682.51013 49.69388 676.71423 55.244904 Q 670.91833 60.79592 669.4489 69.77551 L 653.9387 67.16327 Q 656.06116 53.775513 666.34686 45.12245 Q 676.63257 36.46939 691.3265 36.46939 Q 706.6734 36.46939 717.28564 45.12245 Q 727.8979 53.775513 727.8979 69.28571 Q 727.8979 79.408165 723.1632 87.32653 Q 718.4285 95.2449 709.28564 104.22449 L 671.7346 140.79593 L 728.3877 140.79593 Z M 764.0408 101.12245 L 764.0408 88.061226 L 769.102 88.061226 Q 780.3673 88.061226 787.6326 83.57143 Q 794.8979 79.081635 794.8979 68.79592 Q 794.8979 60.30612 788.9387 55 Q 782.97955 49.69388 774.48975 49.69388 Q 759.7959 49.69388 754.2449 63.897964 L 739.8775 58.83674 Q 744.1224 48.387756 753.51013 42.428574 Q 762.8979 36.46939 775.1428 36.46939 Q 790.3265 36.46939 800.5306 44.79592 Q 810.7346 53.12245 810.7346 67.81633 Q 810.7346 77.44898 805.0204 84.63265 Q 799.3061 91.81633 790.3265 94.10204 L 790.3265 94.42857 Q 800.77545 96.551025 807.3061 104.14285 Q 813.8367 111.734695 813.8367 122.67347 Q 813.8367 139.16327 802.40814 148.55103 Q 790.97955 157.93878 775.1428 157.93878 Q 761.102 157.93878 750.8163 151.57143 Q 740.5306 145.20407 735.7959 132.46939 L 750.48975 127.57143 Q 753.102 135.2449 759.55096 139.89795 Q 765.99994 144.55103 774.8163 144.55103 Q 784.28564 144.55103 791.1428 138.7551 Q 797.99994 132.95918 797.99994 122.51021 Q 797.99994 111.408165 789.4285 106.265305 Q 780.8571 101.12245 768.9387 101.12245 L 764.0408 101.12245 Z M 927.28564 93.28572 L 905.08154 127.734695 L 931.5305 155 L 910.14276 155 L 895.77545 139.81633 Q 882.06116 157.12245 860.6734 157.12245 Q 844.8367 157.12245 833.9795 148.38776 Q 823.1224 139.65306 823.1224 124.30612 Q 823.1224 102.755104 849.08154 90.83674 Q 835.85706 76.95918 835.85706 64.38776 Q 835.85706 51.16327 844.8367 43.81633 Q 853.8163 36.46939 866.71423 36.46939 Q 879.4489 36.46939 888.0203 43.65306 Q 896.59174 50.83674 896.59174 63.571434 Q 896.59174 82.34694 871.77545 94.10204 L 894.79584 117.77551 L 909.3265 93.28572 L 927.28564 93.28572 Z M 881.7346 63.897964 Q 881.7346 57.69388 877.57135 53.448982 Q 873.4081 49.204086 866.8775 49.204086 Q 860.1836 49.204086 855.77545 53.448982 Q 851.36725 57.69388 851.36725 64.551025 Q 851.36725 74.51021 862.79584 84.63265 Q 881.7346 76.30612 881.7346 63.897964 Z M 885.48975 129.53061 L 858.06116 100.79592 Q 839.4489 108.63265 839.4489 123.97959 Q 839.4489 132.79593 845.8979 138.42857 Q 852.34686 144.06122 860.99994 144.06122 Q 875.6938 144.06122 885.48975 129.53061 Z M 1009.9795 128.77551 Q 1009.9795 116.85714 1018.38763 108.36735 Q 1026.7958 99.877556 1038.8773 99.877556 Q 1050.959 99.877556 1059.3672 108.36735 Q 1067.7754 116.85714 1067.7754 128.77551 Q 1067.7754 140.69388 1059.3672 149.18369 Q 1050.959 157.67346 1038.8773 157.67346 Q 1026.7958 157.67346 1018.38763 149.18369 Q 1009.9795 140.69388 1009.9795 128.77551 Z M 1054.2244 128.77551 Q 1054.2244 122.408165 1049.7345 117.91837 Q 1045.2448 113.42857 1038.8773 113.42857 Q 1032.51 113.42857 1028.0203 117.91837 Q 1023.53046 122.408165 1023.53046 128.77551 Q 1023.53046 135.14285 1028.0203 139.63266 Q 1032.51 144.12245 1038.8773 144.12245 Q 1045.2448 144.12245 1049.7345 139.63266 Q 1054.2244 135.14285 1054.2244 128.77551 Z M 939.1223 67.061226 Q 939.1223 55.14286 947.5305 46.65306 Q 955.93866 38.16327 968.0203 38.16327 Q 980.1019 38.16327 988.5101 46.65306 Q 996.9183 55.14286 996.9183 67.061226 Q 996.9183 78.97959 988.5101 87.46939 Q 980.1019 95.95918 968.0203 95.95918 Q 955.93866 95.95918 947.5305 87.46939 Q 939.1223 78.97959 939.1223 67.061226 Z M 983.36725 67.061226 Q 983.36725 60.69388 978.87744 56.204086 Q 974.38763 51.714287 968.0203 51.714287 Q 961.65295 51.714287 957.16315 56.204086 Q 952.67334 60.69388 952.67334 67.061226 Q 952.67334 73.42857 957.16315 77.91837 Q 961.65295 82.408165 968.0203 82.408165 Q 974.38763 82.408165 978.87744 77.91837 Q 983.36725 73.42857 983.36725 67.061226 Z M 1044.4283 40.28572 L 973.73456 160.93878 L 962.63257 155.55103 L 1033.4896 34.897964 L 1044.4283 40.28572 Z M 1086.2855 155.93878 L 1091.1835 121.4898 L 1075.51 121.4898 L 1075.51 109.57143 L 1092.8162 109.57143 L 1095.9182 86.55102 L 1079.9182 86.55102 L 1079.9182 74.63265 L 1097.7141 74.63265 L 1102.4489 40.34694 L 1114.6937 40.34694 L 1109.7958 74.63265 L 1129.061 74.63265 L 1133.7958 40.34694 L 1146.0406 40.34694 L 1141.1427 74.63265 L 1155.8365 74.63265 L 1155.8365 86.55102 L 1139.51 86.55102 L 1136.2448 109.57143 L 1151.4283 109.57143 L 1151.4283 121.4898 L 1134.7754 121.4898 L 1129.8774 155.93878 L 1117.6324 155.93878 L 1122.5304 121.4898 L 1103.2651 121.4898 L 1098.3672 155.93878 L 1086.2855 155.93878 Z M 1108.1631 86.55102 L 1104.8978 109.57143 L 1124.1631 109.57143 L 1127.2651 86.55102 L 1108.1631 86.55102 Z M 1217.7549 107.918365 L 1217.7549 105.79591 Q 1217.7549 97.46939 1212.612 93.14285 Q 1207.4692 88.81632 1198.653 88.81632 Q 1185.5917 88.81632 1176.612 97.79591 L 1168.4489 88 Q 1180.5304 76.408165 1200.1223 76.408165 Q 1216.1223 76.408165 1224.2855 84.81632 Q 1232.4489 93.22449 1232.4489 106.77551 L 1232.4489 140.57143 Q 1232.4489 150.69388 1233.5917 155.91837 L 1219.7141 155.91837 Q 1218.408 150.36734 1218.408 144.81631 L 1217.9182 144.81631 Q 1209.2651 157.87755 1191.959 157.87755 Q 1187.061 157.87755 1182.3264 156.57143 Q 1177.5917 155.2653 1173.3468 152.65306 Q 1169.1019 150.04082 1166.4896 145.22449 Q 1163.8774 140.40817 1163.8774 134.04082 Q 1163.8774 127.34694 1167.061 122.36734 Q 1170.2448 117.38776 1175.1427 114.69388 Q 1180.0406 112 1187.6324 110.448975 Q 1195.2244 108.89796 1201.9999 108.40816 Q 1208.7754 107.918365 1217.7549 107.918365 Z M 1217.7549 119.02041 L 1213.9999 119.02041 Q 1179.5509 119.02041 1179.5509 133.7143 Q 1179.5509 140.08163 1184.1223 142.93878 Q 1188.6937 145.79591 1195.3876 145.79591 Q 1205.8365 145.79591 1211.7958 139.5102 Q 1217.7549 133.22449 1217.7549 123.102036 L 1217.7549 119.02041 Z M 1216.612 49.30612 Q 1216.612 56.16327 1211.7958 60.81633 Q 1206.9794 65.46939 1200.1223 65.46939 Q 1193.2651 65.46939 1188.5304 60.897957 Q 1183.7958 56.32653 1183.7958 49.46939 Q 1183.7958 42.612244 1188.5304 37.959183 Q 1193.2651 33.30612 1200.1223 33.30612 Q 1206.9794 33.30612 1211.7958 37.87755 Q 1216.612 42.448982 1216.612 49.30612 Z M 1209.7549 49.30612 Q 1209.7549 45.387756 1206.8978 42.775513 Q 1204.0406 40.16327 1200.1223 40.16327 Q 1196.204 40.16327 1193.4285 42.775513 Q 1190.653 45.387756 1190.653 49.30612 Q 1190.653 53.224487 1193.4285 55.918365 Q 1196.204 58.612244 1200.1223 58.612244 Q 1204.0406 58.612244 1206.8978 55.918365 Q 1209.7549 53.224487 1209.7549 49.30612 Z M 1296.4691 107.265305 L 1296.4691 105.14285 Q 1296.4691 96.81633 1291.3263 92.48979 Q 1286.1835 88.16326 1277.3672 88.16326 Q 1264.3059 88.16326 1255.3263 97.14285 L 1247.1631 87.34694 Q 1259.2446 75.755104 1278.8365 75.755104 Q 1294.8365 75.755104 1302.9998 84.16326 Q 1311.1631 92.57143 1311.1631 106.12245 L 1311.1631 139.91837 Q 1311.1631 150.04082 1312.3059 155.2653 L 1298.4283 155.2653 Q 1297.1222 149.7143 1297.1222 144.16327 L 1296.6324 144.16327 Q 1287.9794 157.22449 1270.6732 157.22449 Q 1265.7753 157.22449 1261.0406 155.91837 Q 1256.3059 154.61224 1252.061 152 Q 1247.8162 149.38776 1245.2039 144.57143 Q 1242.5917 139.7551 1242.5917 133.38776 Q 1242.5917 126.69388 1245.7753 121.71428 Q 1248.959 116.734695 1253.8569 114.04082 Q 1258.7549 111.34694 1266.3467 109.79591 Q 1273.9386 108.244896 1280.7141 107.7551 Q 1287.4896 107.265305 1296.4691 107.265305 Z M 1296.4691 118.36735 L 1292.7141 118.36735 Q 1258.2651 118.36735 1258.2651 133.06122 Q 1258.2651 139.42857 1262.8365 142.2857 Q 1267.408 145.14285 1274.1018 145.14285 Q 1284.5508 145.14285 1290.51 138.85715 Q 1296.4691 132.57143 1296.4691 122.448975 L 1296.4691 118.36735 Z M 1253.0406 49.959183 Q 1253.0406 45.87755 1255.9794 42.938774 Q 1258.9182 40 1263.1631 40 Q 1267.408 40 1270.3467 42.857147 Q 1273.2855 45.714287 1273.2855 49.959183 Q 1273.2855 54.040817 1270.3467 56.897957 Q 1267.408 59.755104 1263.1631 59.755104 Q 1258.9182 59.755104 1255.9794 56.81633 Q 1253.0406 53.87755 1253.0406 49.959183 Z M 1284.7141 49.959183 Q 1284.7141 45.87755 1287.6528 42.938774 Q 1290.5917 40 1294.8365 40 Q 1299.0814 40 1302.0201 42.857147 Q 1304.959 45.714287 1304.959 49.959183 Q 1304.959 54.040817 1302.0201 56.897957 Q 1299.0814 59.755104 1294.8365 59.755104 Q 1290.5917 59.755104 1287.6528 56.81633 Q 1284.7141 53.87755 1284.7141 49.959183 Z M 1405.0404 116.40816 Q 1405.0404 134.20407 1393.0404 145.79591 Q 1381.0404 157.38776 1363.2445 157.38776 Q 1345.4486 157.38776 1333.5303 145.79591 Q 1321.6118 134.20407 1321.6118 116.40816 Q 1321.6118 98.61224 1333.4486 87.18367 Q 1345.2854 75.755104 1363.2445 75.755104 Q 1381.2037 75.755104 1393.1221 87.18367 Q 1405.0404 98.61224 1405.0404 116.40816 Z M 1389.0404 116.40816 Q 1389.0404 104.81633 1382.1017 96.65306 Q 1375.1628 88.4898 1363.2445 88.4898 Q 1351.3262 88.4898 1344.3873 96.65306 Q 1337.4486 104.81633 1337.4486 116.40816 Q 1337.4486 128 1344.3873 136.2449 Q 1351.3262 144.48979 1363.2445 144.48979 Q 1375.1628 144.48979 1382.1017 136.2449 Q 1389.0404 128 1389.0404 116.40816 Z M 1337.4486 49.959183 Q 1337.4486 45.87755 1340.3873 42.938774 Q 1343.3262 40 1347.571 40 Q 1351.8159 40 1354.7548 42.857147 Q 1357.6935 45.714287 1357.6935 49.959183 Q 1357.6935 54.040817 1354.7548 56.897957 Q 1351.8159 59.755104 1347.571 59.755104 Q 1343.3262 59.755104 1340.3873 56.81633 Q 1337.4486 53.87755 1337.4486 49.959183 Z M 1369.1221 49.959183 Q 1369.1221 45.87755 1372.0609 42.938774 Q 1374.9996 40 1379.2445 40 Q 1383.4894 40 1386.4282 42.857147 Q 1389.367 45.714287 1389.367 49.959183 Q 1389.367 54.040817 1386.4282 56.897957 Q 1383.4894 59.755104 1379.2445 59.755104 Q 1374.9996 59.755104 1372.0609 56.81633 Q 1369.1221 53.87755 1369.1221 49.959183 Z M 1435.6526 126.85715 L 1424.0608 155.2653 L 1406.1016 155.2653 L 1456.224 39.67347 L 1470.918 39.67347 L 1520.5505 155.2653 L 1502.2649 155.2653 L 1490.5098 126.85715 L 1435.6526 126.85715 Z M 1463.0812 58.448982 L 1441.367 112.65306 L 1484.6322 112.65306 L 1463.0812 58.448982 Z M 1480.224 16 Q 1480.224 22.857147 1475.4077 27.510208 Q 1470.5914 32.16327 1463.7343 32.16327 Q 1456.8771 32.16327 1452.1425 27.591835 Q 1447.4077 23.020416 1447.4077 16.163269 Q 1447.4077 9.306122 1452.1425 4.653061 Q 1456.8771 0 1463.7343 0 Q 1470.5914 0 1475.4077 4.5714264 Q 1480.224 9.142853 1480.224 16 Z M 1473.5302 16 Q 1473.5302 11.9183655 1470.673 9.224487 Q 1467.8159 6.530609 1463.7343 6.530609 Q 1459.6526 6.530609 1456.8771 9.306122 Q 1454.1016 12.0816345 1454.1016 16.163269 Q 1454.1016 20.081635 1456.8771 22.775513 Q 1459.6526 25.46939 1463.7343 25.46939 Q 1467.8159 25.46939 1470.673 22.775513 Q 1473.5302 20.081635 1473.5302 16 Z M 1551.9995 127.20407 L 1540.4077 155.61224 L 1522.4485 155.61224 L 1572.5709 40.02041 L 1587.2649 40.02041 L 1636.8975 155.61224 L 1618.6118 155.61224 L 1606.8567 127.20407 L 1551.9995 127.20407 Z M 1579.4281 58.79592 L 1557.7139 113 L 1600.9791 113 L 1579.4281 58.79592 Z M 1553.9587 17.65306 Q 1553.9587 13.571426 1556.8975 10.63266 Q 1559.8363 7.693878 1564.0812 7.693878 Q 1568.326 7.693878 1571.2649 10.551025 Q 1574.2036 13.408157 1574.2036 17.65306 Q 1574.2036 21.734695 1571.2649 24.591843 Q 1568.326 27.448975 1564.0812 27.448975 Q 1559.8363 27.448975 1556.8975 24.510208 Q 1553.9587 21.571426 1553.9587 17.65306 Z M 1585.6322 17.65306 Q 1585.6322 13.571426 1588.5709 10.63266 Q 1591.5098 7.693878 1595.7546 7.693878 Q 1599.9995 7.693878 1602.9384 10.551025 Q 1605.8771 13.408157 1605.8771 17.65306 Q 1605.8771 21.734695 1602.9384 24.591843 Q 1599.9995 27.448975 1595.7546 27.448975 Q 1591.5098 27.448975 1588.5709 24.510208 Q 1585.6322 21.571426 1585.6322 17.65306 Z M 1768.9384 97.65306 Q 1768.9384 124.265305 1751.5505 141.40816 Q 1734.1627 158.55103 1707.5505 158.55103 Q 1681.1016 158.55103 1663.7954 141.40816 Q 1646.4893 124.265305 1646.4893 97.65306 Q 1646.4893 70.87755 1663.7137 53.97959 Q 1680.9384 37.081635 1707.5505 37.081635 Q 1734.1627 37.081635 1751.5505 53.97959 Q 1768.9384 70.87755 1768.9384 97.65306 Z M 1751.4689 97.65306 Q 1751.4689 78.061226 1739.3873 64.67347 Q 1727.3057 51.285713 1707.5505 51.285713 Q 1688.122 51.285713 1676.0403 64.67347 Q 1663.9587 78.061226 1663.9587 97.65306 Q 1663.9587 117.40816 1676.0403 130.7143 Q 1688.122 144.0204 1707.5505 144.0204 Q 1727.3057 144.0204 1739.3873 130.7143 Q 1751.4689 117.40816 1751.4689 97.65306 Z M 1681.5913 17.65306 Q 1681.5913 13.571426 1684.5302 10.63266 Q 1687.4689 7.693878 1691.7137 7.693878 Q 1695.9587 7.693878 1698.8975 10.551025 Q 1701.8363 13.408157 1701.8363 17.65306 Q 1701.8363 21.734695 1698.8975 24.591843 Q 1695.9587 27.448975 1691.7137 27.448975 Q 1687.4689 27.448975 1684.5302 24.510208 Q 1681.5913 21.571426 1681.5913 17.65306 Z M 1713.2648 17.65306 Q 1713.2648 13.571426 1716.2036 10.63266 Q 1719.1423 7.693878 1723.3873 7.693878 Q 1727.6322 7.693878 1730.5709 10.551025 Q 1733.5098 13.408157 1733.5098 17.65306 Q 1733.5098 21.734695 1730.5709 24.591843 Q 1727.6322 27.448975 1723.3873 27.448975 Q 1719.1423 27.448975 1716.2036 24.510208 Q 1713.2648 21.571426 1713.2648 17.65306 Z " fill="tomato"/>
    <rect x="0" y="0" width="1768.9384" height="160.93878" stroke="black" stroke-width="1" fill="none"/>
</svg>
